<svg xmlns="http://www.w3.org/2000/svg" viewBox="0 0 512 512"><defs><radialGradient id="radial-gradient" cx="210.69" cy="290.9" r="489.65" fx="-7.15" fy="607.1" gradientTransform="matrix(1 .00262 -.00215 .82 .63 51.83)" gradientUnits="userSpaceOnUse"><stop offset="0" stop-color="#fd2d64"/><stop offset=".35" stop-color="#f72085"/><stop offset=".60" stop-color="#cb0188"/><stop offset=".80" stop-color="#9807a0"/><stop offset=".98" stop-color="#a9119c"/></radialGradient></defs><path d="M338.99 114.18c.35-18.24-3.75-33.6-3.75-33.6l-19.3 12.21c10.65 23.27 11.88 40.72 4.98 55.69-6.19-2.52-12.82-4.7-19.95-6.45-61.99-15.26-130.27 28.36-144.19 85.68-13.93 57.31-25.59 70.9-46.58 102.7-20.99 31.8-24.51 88.08 82.36 90.67 175.35 4.25 258.08-209.12 136.43-268.98 4.33-6.59 6.92-14.13 8.39-21.77 22.07 29.55 68.52 30.76 97.55-19.12-35.94-30.59-76.13-29.31-95.93 2.98Z" fill="#fff"/><path fill="url(#radial-gradient)" d="M338.99 114.18c.35-18.24-3.75-33.6-3.75-33.6l-19.3 12.21c10.65 23.27 11.88 40.72 4.98 55.69-6.19-2.52-12.82-4.7-19.95-6.45-61.99-15.26-130.27 28.36-144.19 85.68-13.93 57.31-25.59 70.9-46.58 102.7-20.99 31.8-24.51 88.08 82.36 90.67 175.35 4.25 258.08-209.12 136.43-268.98 4.33-6.59 6.92-14.13 8.39-21.77 22.07 29.55 68.52 30.76 97.55-19.12-35.94-30.59-76.13-29.31-95.93 2.98Z"/></svg>