<svg xmlns="http://www.w3.org/2000/svg" viewBox="0 0 512 512"><defs><radialGradient id="a" cx="240.42" cy="258.23" r="572.99" fx="-14.49" fy="628.24" gradientTransform="matrix(1 .00262 -.00215 .82 .56 45.87)" gradientUnits="userSpaceOnUse"><stop offset="0" stop-color="#fd2d64"/><stop offset=".26" stop-color="#f72085"/><stop offset=".52" stop-color="#cb0188"/><stop offset=".74" stop-color="#9807a0"/><stop offset=".98" stop-color="#a9119c"/></radialGradient></defs><path fill="url(#a)" d="M0 0h512v512H0z"/><path fill="#fff" d="M434.92 111.2c-35.94-30.59-76.13-29.31-95.93 2.98.35-18.24-3.75-33.6-3.75-33.6l-19.3 12.21c10.65 23.27 11.88 40.72 4.98 55.69-6.19-2.52-12.82-4.7-19.95-6.45-61.99-15.26-130.27 28.36-144.19 85.68-13.93 57.31-25.59 70.9-46.58 102.7-20.99 31.8-24.51 88.08 82.36 90.67 175.35 4.25 258.08-209.12 136.43-268.98 4.33-6.59 6.92-14.13 8.39-21.77 22.07 29.55 68.52 30.76 97.55-19.12Z"/></svg>